<?xml version="1.0" encoding="utf-8" standalone="no"?>
<!DOCTYPE svg PUBLIC "-//W3C//DTD SVG 1.1//EN"
  "http://www.w3.org/Graphics/SVG/1.1/DTD/svg11.dtd">
<svg xmlns:xlink="http://www.w3.org/1999/xlink" width="460.8pt" height="345.6pt" viewBox="0 0 460.8 345.6" xmlns="http://www.w3.org/2000/svg" version="1.1">
 <metadata>
  <rdf:RDF xmlns:dc="http://purl.org/dc/elements/1.1/" xmlns:cc="http://creativecommons.org/ns#" xmlns:rdf="http://www.w3.org/1999/02/22-rdf-syntax-ns#">
   <cc:Work>
    <dc:type rdf:resource="http://purl.org/dc/dcmitype/StillImage"/>
    <dc:date>2024-05-29T17:52:45.278559</dc:date>
    <dc:format>image/svg+xml</dc:format>
    <dc:creator>
     <cc:Agent>
      <dc:title>Matplotlib v3.9.0, https://matplotlib.org/</dc:title>
     </cc:Agent>
    </dc:creator>
   </cc:Work>
  </rdf:RDF>
 </metadata>
 <defs>
  <style type="text/css">*{stroke-linejoin: round; stroke-linecap: butt}</style>
 </defs>
 <g id="figure_1">
  <g id="patch_1">
   <path d="M 0 345.6 
L 460.8 345.6 
L 460.8 0 
L 0 0 
z
" style="fill: #ffffff"/>
  </g>
  <g id="axes_1">
   <g id="patch_2">
    <path d="M 57.6 307.584 
L 414.72 307.584 
L 414.72 41.472 
L 57.6 41.472 
z
" style="fill: #ffffff"/>
   </g>
   <g id="matplotlib.axis_1">
    <g id="xtick_1">
     <g id="line2d_1">
      <defs>
       <path id="m2932768afe" d="M 0 0 
L 0 3.5 
" style="stroke: #000000; stroke-width: 0.8"/>
      </defs>
      <g>
       <use xlink:href="#m2932768afe" x="57.6" y="307.584" style="stroke: #000000; stroke-width: 0.8"/>
      </g>
     </g>
     <g id="text_1">
      <!-- 0 -->
      <g transform="translate(54.41875 322.182437) scale(0.1 -0.1)">
       <defs>
        <path id="DejaVuSans-30" d="M 2034 4250 
Q 1547 4250 1301 3770 
Q 1056 3291 1056 2328 
Q 1056 1369 1301 889 
Q 1547 409 2034 409 
Q 2525 409 2770 889 
Q 3016 1369 3016 2328 
Q 3016 3291 2770 3770 
Q 2525 4250 2034 4250 
z
M 2034 4750 
Q 2819 4750 3233 4129 
Q 3647 3509 3647 2328 
Q 3647 1150 3233 529 
Q 2819 -91 2034 -91 
Q 1250 -91 836 529 
Q 422 1150 422 2328 
Q 422 3509 836 4129 
Q 1250 4750 2034 4750 
z
" transform="scale(0.015625)"/>
       </defs>
       <use xlink:href="#DejaVuSans-30"/>
      </g>
     </g>
    </g>
    <g id="xtick_2">
     <g id="line2d_2">
      <g>
       <use xlink:href="#m2932768afe" x="122.530909" y="307.584" style="stroke: #000000; stroke-width: 0.8"/>
      </g>
     </g>
     <g id="text_2">
      <!-- 50 -->
      <g transform="translate(116.168409 322.182437) scale(0.1 -0.1)">
       <defs>
        <path id="DejaVuSans-35" d="M 691 4666 
L 3169 4666 
L 3169 4134 
L 1269 4134 
L 1269 2991 
Q 1406 3038 1543 3061 
Q 1681 3084 1819 3084 
Q 2600 3084 3056 2656 
Q 3513 2228 3513 1497 
Q 3513 744 3044 326 
Q 2575 -91 1722 -91 
Q 1428 -91 1123 -41 
Q 819 9 494 109 
L 494 744 
Q 775 591 1075 516 
Q 1375 441 1709 441 
Q 2250 441 2565 725 
Q 2881 1009 2881 1497 
Q 2881 1984 2565 2268 
Q 2250 2553 1709 2553 
Q 1456 2553 1204 2497 
Q 953 2441 691 2322 
L 691 4666 
z
" transform="scale(0.015625)"/>
       </defs>
       <use xlink:href="#DejaVuSans-35"/>
       <use xlink:href="#DejaVuSans-30" x="63.623047"/>
      </g>
     </g>
    </g>
    <g id="xtick_3">
     <g id="line2d_3">
      <g>
       <use xlink:href="#m2932768afe" x="187.461818" y="307.584" style="stroke: #000000; stroke-width: 0.8"/>
      </g>
     </g>
     <g id="text_3">
      <!-- 100 -->
      <g transform="translate(177.918068 322.182437) scale(0.1 -0.1)">
       <defs>
        <path id="DejaVuSans-31" d="M 794 531 
L 1825 531 
L 1825 4091 
L 703 3866 
L 703 4441 
L 1819 4666 
L 2450 4666 
L 2450 531 
L 3481 531 
L 3481 0 
L 794 0 
L 794 531 
z
" transform="scale(0.015625)"/>
       </defs>
       <use xlink:href="#DejaVuSans-31"/>
       <use xlink:href="#DejaVuSans-30" x="63.623047"/>
       <use xlink:href="#DejaVuSans-30" x="127.246094"/>
      </g>
     </g>
    </g>
    <g id="xtick_4">
     <g id="line2d_4">
      <g>
       <use xlink:href="#m2932768afe" x="252.392727" y="307.584" style="stroke: #000000; stroke-width: 0.8"/>
      </g>
     </g>
     <g id="text_4">
      <!-- 150 -->
      <g transform="translate(242.848977 322.182437) scale(0.1 -0.1)">
       <use xlink:href="#DejaVuSans-31"/>
       <use xlink:href="#DejaVuSans-35" x="63.623047"/>
       <use xlink:href="#DejaVuSans-30" x="127.246094"/>
      </g>
     </g>
    </g>
    <g id="xtick_5">
     <g id="line2d_5">
      <g>
       <use xlink:href="#m2932768afe" x="317.323636" y="307.584" style="stroke: #000000; stroke-width: 0.8"/>
      </g>
     </g>
     <g id="text_5">
      <!-- 200 -->
      <g transform="translate(307.779886 322.182437) scale(0.1 -0.1)">
       <defs>
        <path id="DejaVuSans-32" d="M 1228 531 
L 3431 531 
L 3431 0 
L 469 0 
L 469 531 
Q 828 903 1448 1529 
Q 2069 2156 2228 2338 
Q 2531 2678 2651 2914 
Q 2772 3150 2772 3378 
Q 2772 3750 2511 3984 
Q 2250 4219 1831 4219 
Q 1534 4219 1204 4116 
Q 875 4013 500 3803 
L 500 4441 
Q 881 4594 1212 4672 
Q 1544 4750 1819 4750 
Q 2544 4750 2975 4387 
Q 3406 4025 3406 3419 
Q 3406 3131 3298 2873 
Q 3191 2616 2906 2266 
Q 2828 2175 2409 1742 
Q 1991 1309 1228 531 
z
" transform="scale(0.015625)"/>
       </defs>
       <use xlink:href="#DejaVuSans-32"/>
       <use xlink:href="#DejaVuSans-30" x="63.623047"/>
       <use xlink:href="#DejaVuSans-30" x="127.246094"/>
      </g>
     </g>
    </g>
    <g id="xtick_6">
     <g id="line2d_6">
      <g>
       <use xlink:href="#m2932768afe" x="382.254545" y="307.584" style="stroke: #000000; stroke-width: 0.8"/>
      </g>
     </g>
     <g id="text_6">
      <!-- 250 -->
      <g transform="translate(372.710795 322.182437) scale(0.1 -0.1)">
       <use xlink:href="#DejaVuSans-32"/>
       <use xlink:href="#DejaVuSans-35" x="63.623047"/>
       <use xlink:href="#DejaVuSans-30" x="127.246094"/>
      </g>
     </g>
    </g>
    <g id="text_7">
     <!-- Time (mins) -->
     <g transform="translate(206.402969 335.860562) scale(0.1 -0.1)">
      <defs>
       <path id="DejaVuSans-54" d="M -19 4666 
L 3928 4666 
L 3928 4134 
L 2272 4134 
L 2272 0 
L 1638 0 
L 1638 4134 
L -19 4134 
L -19 4666 
z
" transform="scale(0.015625)"/>
       <path id="DejaVuSans-69" d="M 603 3500 
L 1178 3500 
L 1178 0 
L 603 0 
L 603 3500 
z
M 603 4863 
L 1178 4863 
L 1178 4134 
L 603 4134 
L 603 4863 
z
" transform="scale(0.015625)"/>
       <path id="DejaVuSans-6d" d="M 3328 2828 
Q 3544 3216 3844 3400 
Q 4144 3584 4550 3584 
Q 5097 3584 5394 3201 
Q 5691 2819 5691 2113 
L 5691 0 
L 5113 0 
L 5113 2094 
Q 5113 2597 4934 2840 
Q 4756 3084 4391 3084 
Q 3944 3084 3684 2787 
Q 3425 2491 3425 1978 
L 3425 0 
L 2847 0 
L 2847 2094 
Q 2847 2600 2669 2842 
Q 2491 3084 2119 3084 
Q 1678 3084 1418 2786 
Q 1159 2488 1159 1978 
L 1159 0 
L 581 0 
L 581 3500 
L 1159 3500 
L 1159 2956 
Q 1356 3278 1631 3431 
Q 1906 3584 2284 3584 
Q 2666 3584 2933 3390 
Q 3200 3197 3328 2828 
z
" transform="scale(0.015625)"/>
       <path id="DejaVuSans-65" d="M 3597 1894 
L 3597 1613 
L 953 1613 
Q 991 1019 1311 708 
Q 1631 397 2203 397 
Q 2534 397 2845 478 
Q 3156 559 3463 722 
L 3463 178 
Q 3153 47 2828 -22 
Q 2503 -91 2169 -91 
Q 1331 -91 842 396 
Q 353 884 353 1716 
Q 353 2575 817 3079 
Q 1281 3584 2069 3584 
Q 2775 3584 3186 3129 
Q 3597 2675 3597 1894 
z
M 3022 2063 
Q 3016 2534 2758 2815 
Q 2500 3097 2075 3097 
Q 1594 3097 1305 2825 
Q 1016 2553 972 2059 
L 3022 2063 
z
" transform="scale(0.015625)"/>
       <path id="DejaVuSans-20" transform="scale(0.015625)"/>
       <path id="DejaVuSans-28" d="M 1984 4856 
Q 1566 4138 1362 3434 
Q 1159 2731 1159 2009 
Q 1159 1288 1364 580 
Q 1569 -128 1984 -844 
L 1484 -844 
Q 1016 -109 783 600 
Q 550 1309 550 2009 
Q 550 2706 781 3412 
Q 1013 4119 1484 4856 
L 1984 4856 
z
" transform="scale(0.015625)"/>
       <path id="DejaVuSans-6e" d="M 3513 2113 
L 3513 0 
L 2938 0 
L 2938 2094 
Q 2938 2591 2744 2837 
Q 2550 3084 2163 3084 
Q 1697 3084 1428 2787 
Q 1159 2491 1159 1978 
L 1159 0 
L 581 0 
L 581 3500 
L 1159 3500 
L 1159 2956 
Q 1366 3272 1645 3428 
Q 1925 3584 2291 3584 
Q 2894 3584 3203 3211 
Q 3513 2838 3513 2113 
z
" transform="scale(0.015625)"/>
       <path id="DejaVuSans-73" d="M 2834 3397 
L 2834 2853 
Q 2591 2978 2328 3040 
Q 2066 3103 1784 3103 
Q 1356 3103 1142 2972 
Q 928 2841 928 2578 
Q 928 2378 1081 2264 
Q 1234 2150 1697 2047 
L 1894 2003 
Q 2506 1872 2764 1633 
Q 3022 1394 3022 966 
Q 3022 478 2636 193 
Q 2250 -91 1575 -91 
Q 1294 -91 989 -36 
Q 684 19 347 128 
L 347 722 
Q 666 556 975 473 
Q 1284 391 1588 391 
Q 1994 391 2212 530 
Q 2431 669 2431 922 
Q 2431 1156 2273 1281 
Q 2116 1406 1581 1522 
L 1381 1569 
Q 847 1681 609 1914 
Q 372 2147 372 2553 
Q 372 3047 722 3315 
Q 1072 3584 1716 3584 
Q 2034 3584 2315 3537 
Q 2597 3491 2834 3397 
z
" transform="scale(0.015625)"/>
       <path id="DejaVuSans-29" d="M 513 4856 
L 1013 4856 
Q 1481 4119 1714 3412 
Q 1947 2706 1947 2009 
Q 1947 1309 1714 600 
Q 1481 -109 1013 -844 
L 513 -844 
Q 928 -128 1133 580 
Q 1338 1288 1338 2009 
Q 1338 2731 1133 3434 
Q 928 4138 513 4856 
z
" transform="scale(0.015625)"/>
      </defs>
      <use xlink:href="#DejaVuSans-54"/>
      <use xlink:href="#DejaVuSans-69" x="57.958984"/>
      <use xlink:href="#DejaVuSans-6d" x="85.742188"/>
      <use xlink:href="#DejaVuSans-65" x="183.154297"/>
      <use xlink:href="#DejaVuSans-20" x="244.677734"/>
      <use xlink:href="#DejaVuSans-28" x="276.464844"/>
      <use xlink:href="#DejaVuSans-6d" x="315.478516"/>
      <use xlink:href="#DejaVuSans-69" x="412.890625"/>
      <use xlink:href="#DejaVuSans-6e" x="440.673828"/>
      <use xlink:href="#DejaVuSans-73" x="504.052734"/>
      <use xlink:href="#DejaVuSans-29" x="556.152344"/>
     </g>
    </g>
   </g>
   <g id="matplotlib.axis_2">
    <g id="ytick_1">
     <g id="line2d_7">
      <defs>
       <path id="m0ea6191d7d" d="M 0 0 
L -3.5 0 
" style="stroke: #000000; stroke-width: 0.8"/>
      </defs>
      <g>
       <use xlink:href="#m0ea6191d7d" x="57.6" y="307.584" style="stroke: #000000; stroke-width: 0.8"/>
      </g>
     </g>
     <g id="text_8">
      <!-- 0 -->
      <g transform="translate(44.2375 311.383219) scale(0.1 -0.1)">
       <use xlink:href="#DejaVuSans-30"/>
      </g>
     </g>
    </g>
    <g id="ytick_2">
     <g id="line2d_8">
      <g>
       <use xlink:href="#m0ea6191d7d" x="57.6" y="251.974243" style="stroke: #000000; stroke-width: 0.8"/>
      </g>
     </g>
     <g id="text_9">
      <!-- 2000 -->
      <g transform="translate(25.15 255.773461) scale(0.1 -0.1)">
       <use xlink:href="#DejaVuSans-32"/>
       <use xlink:href="#DejaVuSans-30" x="63.623047"/>
       <use xlink:href="#DejaVuSans-30" x="127.246094"/>
       <use xlink:href="#DejaVuSans-30" x="190.869141"/>
      </g>
     </g>
    </g>
    <g id="ytick_3">
     <g id="line2d_9">
      <g>
       <use xlink:href="#m0ea6191d7d" x="57.6" y="196.364485" style="stroke: #000000; stroke-width: 0.8"/>
      </g>
     </g>
     <g id="text_10">
      <!-- 4000 -->
      <g transform="translate(25.15 200.163704) scale(0.1 -0.1)">
       <defs>
        <path id="DejaVuSans-34" d="M 2419 4116 
L 825 1625 
L 2419 1625 
L 2419 4116 
z
M 2253 4666 
L 3047 4666 
L 3047 1625 
L 3713 1625 
L 3713 1100 
L 3047 1100 
L 3047 0 
L 2419 0 
L 2419 1100 
L 313 1100 
L 313 1709 
L 2253 4666 
z
" transform="scale(0.015625)"/>
       </defs>
       <use xlink:href="#DejaVuSans-34"/>
       <use xlink:href="#DejaVuSans-30" x="63.623047"/>
       <use xlink:href="#DejaVuSans-30" x="127.246094"/>
       <use xlink:href="#DejaVuSans-30" x="190.869141"/>
      </g>
     </g>
    </g>
    <g id="ytick_4">
     <g id="line2d_10">
      <g>
       <use xlink:href="#m0ea6191d7d" x="57.6" y="140.754728" style="stroke: #000000; stroke-width: 0.8"/>
      </g>
     </g>
     <g id="text_11">
      <!-- 6000 -->
      <g transform="translate(25.15 144.553947) scale(0.1 -0.1)">
       <defs>
        <path id="DejaVuSans-36" d="M 2113 2584 
Q 1688 2584 1439 2293 
Q 1191 2003 1191 1497 
Q 1191 994 1439 701 
Q 1688 409 2113 409 
Q 2538 409 2786 701 
Q 3034 994 3034 1497 
Q 3034 2003 2786 2293 
Q 2538 2584 2113 2584 
z
M 3366 4563 
L 3366 3988 
Q 3128 4100 2886 4159 
Q 2644 4219 2406 4219 
Q 1781 4219 1451 3797 
Q 1122 3375 1075 2522 
Q 1259 2794 1537 2939 
Q 1816 3084 2150 3084 
Q 2853 3084 3261 2657 
Q 3669 2231 3669 1497 
Q 3669 778 3244 343 
Q 2819 -91 2113 -91 
Q 1303 -91 875 529 
Q 447 1150 447 2328 
Q 447 3434 972 4092 
Q 1497 4750 2381 4750 
Q 2619 4750 2861 4703 
Q 3103 4656 3366 4563 
z
" transform="scale(0.015625)"/>
       </defs>
       <use xlink:href="#DejaVuSans-36"/>
       <use xlink:href="#DejaVuSans-30" x="63.623047"/>
       <use xlink:href="#DejaVuSans-30" x="127.246094"/>
       <use xlink:href="#DejaVuSans-30" x="190.869141"/>
      </g>
     </g>
    </g>
    <g id="ytick_5">
     <g id="line2d_11">
      <g>
       <use xlink:href="#m0ea6191d7d" x="57.6" y="85.144971" style="stroke: #000000; stroke-width: 0.8"/>
      </g>
     </g>
     <g id="text_12">
      <!-- 8000 -->
      <g transform="translate(25.15 88.94419) scale(0.1 -0.1)">
       <defs>
        <path id="DejaVuSans-38" d="M 2034 2216 
Q 1584 2216 1326 1975 
Q 1069 1734 1069 1313 
Q 1069 891 1326 650 
Q 1584 409 2034 409 
Q 2484 409 2743 651 
Q 3003 894 3003 1313 
Q 3003 1734 2745 1975 
Q 2488 2216 2034 2216 
z
M 1403 2484 
Q 997 2584 770 2862 
Q 544 3141 544 3541 
Q 544 4100 942 4425 
Q 1341 4750 2034 4750 
Q 2731 4750 3128 4425 
Q 3525 4100 3525 3541 
Q 3525 3141 3298 2862 
Q 3072 2584 2669 2484 
Q 3125 2378 3379 2068 
Q 3634 1759 3634 1313 
Q 3634 634 3220 271 
Q 2806 -91 2034 -91 
Q 1263 -91 848 271 
Q 434 634 434 1313 
Q 434 1759 690 2068 
Q 947 2378 1403 2484 
z
M 1172 3481 
Q 1172 3119 1398 2916 
Q 1625 2713 2034 2713 
Q 2441 2713 2670 2916 
Q 2900 3119 2900 3481 
Q 2900 3844 2670 4047 
Q 2441 4250 2034 4250 
Q 1625 4250 1398 4047 
Q 1172 3844 1172 3481 
z
" transform="scale(0.015625)"/>
       </defs>
       <use xlink:href="#DejaVuSans-38"/>
       <use xlink:href="#DejaVuSans-30" x="63.623047"/>
       <use xlink:href="#DejaVuSans-30" x="127.246094"/>
       <use xlink:href="#DejaVuSans-30" x="190.869141"/>
      </g>
     </g>
    </g>
    <g id="text_13">
     <!-- Flux (LMH) -->
     <g transform="translate(19.070312 201.27175) rotate(-90) scale(0.1 -0.1)">
      <defs>
       <path id="DejaVuSans-46" d="M 628 4666 
L 3309 4666 
L 3309 4134 
L 1259 4134 
L 1259 2759 
L 3109 2759 
L 3109 2228 
L 1259 2228 
L 1259 0 
L 628 0 
L 628 4666 
z
" transform="scale(0.015625)"/>
       <path id="DejaVuSans-6c" d="M 603 4863 
L 1178 4863 
L 1178 0 
L 603 0 
L 603 4863 
z
" transform="scale(0.015625)"/>
       <path id="DejaVuSans-75" d="M 544 1381 
L 544 3500 
L 1119 3500 
L 1119 1403 
Q 1119 906 1312 657 
Q 1506 409 1894 409 
Q 2359 409 2629 706 
Q 2900 1003 2900 1516 
L 2900 3500 
L 3475 3500 
L 3475 0 
L 2900 0 
L 2900 538 
Q 2691 219 2414 64 
Q 2138 -91 1772 -91 
Q 1169 -91 856 284 
Q 544 659 544 1381 
z
M 1991 3584 
L 1991 3584 
z
" transform="scale(0.015625)"/>
       <path id="DejaVuSans-78" d="M 3513 3500 
L 2247 1797 
L 3578 0 
L 2900 0 
L 1881 1375 
L 863 0 
L 184 0 
L 1544 1831 
L 300 3500 
L 978 3500 
L 1906 2253 
L 2834 3500 
L 3513 3500 
z
" transform="scale(0.015625)"/>
       <path id="DejaVuSans-4c" d="M 628 4666 
L 1259 4666 
L 1259 531 
L 3531 531 
L 3531 0 
L 628 0 
L 628 4666 
z
" transform="scale(0.015625)"/>
       <path id="DejaVuSans-4d" d="M 628 4666 
L 1569 4666 
L 2759 1491 
L 3956 4666 
L 4897 4666 
L 4897 0 
L 4281 0 
L 4281 4097 
L 3078 897 
L 2444 897 
L 1241 4097 
L 1241 0 
L 628 0 
L 628 4666 
z
" transform="scale(0.015625)"/>
       <path id="DejaVuSans-48" d="M 628 4666 
L 1259 4666 
L 1259 2753 
L 3553 2753 
L 3553 4666 
L 4184 4666 
L 4184 0 
L 3553 0 
L 3553 2222 
L 1259 2222 
L 1259 0 
L 628 0 
L 628 4666 
z
" transform="scale(0.015625)"/>
      </defs>
      <use xlink:href="#DejaVuSans-46"/>
      <use xlink:href="#DejaVuSans-6c" x="57.519531"/>
      <use xlink:href="#DejaVuSans-75" x="85.302734"/>
      <use xlink:href="#DejaVuSans-78" x="148.681641"/>
      <use xlink:href="#DejaVuSans-20" x="207.861328"/>
      <use xlink:href="#DejaVuSans-28" x="239.648438"/>
      <use xlink:href="#DejaVuSans-4c" x="278.662109"/>
      <use xlink:href="#DejaVuSans-4d" x="334.375"/>
      <use xlink:href="#DejaVuSans-48" x="420.654297"/>
      <use xlink:href="#DejaVuSans-29" x="495.849609"/>
     </g>
    </g>
   </g>
   <g id="line2d_12">
    <path d="M 57.6 124.216368 
L 59.700639 346.6 
M 60.458732 346.6 
L 61.495855 127.386155 
L 62.147794 346.6 
M 63.444301 346.6 
L 64.093091 129.50278 
L 64.688358 346.6 
M 66.035671 346.6 
L 66.690327 85.824 
L 67.988945 132.694257 
L 68.644482 346.6 
M 69.933962 346.6 
L 70.586182 134.868367 
L 71.250817 346.6 
M 72.522132 346.6 
L 73.183418 137.042477 
L 74.482036 138.333168 
L 75.062231 346.6 
M 76.502789 346.6 
L 77.079273 140.728538 
L 77.827355 346.6 
M 79.013266 346.6 
L 79.676509 188.447779 
L 80.975127 144.380707 
L 81.642669 346.6 
M 82.908207 346.6 
L 83.572364 146.479436 
L 84.870982 231.626009 
L 86.1696 291.949554 
L 87.468218 300.066537 
L 88.766836 303.432367 
L 90.065455 305.059289 
L 91.364073 306.061744 
L 93.961309 306.924283 
L 95.259927 307.188658 
L 96.558545 307.247228 
L 97.857164 253.669442 
L 99.155782 150.010127 
L 99.558812 346.6 
M 101.350695 346.6 
L 101.753018 150.510135 
L 103.051636 151.458087 
L 104.350255 152.553006 
L 104.727773 346.6 
M 106.572772 346.6 
L 106.947491 154.575813 
L 109.544727 156.111626 
L 110.843345 157.249928 
L 111.165331 346.6 
M 113.120048 346.6 
L 113.440582 158.38308 
L 114.7392 159.433799 
L 116.037818 159.820466 
L 117.336436 160.520312 
L 117.654253 346.6 
M 119.617184 346.6 
L 119.933673 161.548256 
L 121.232291 162.344363 
L 122.530909 162.767362 
L 123.829527 163.69037 
L 124.150321 346.6 
M 126.107463 346.6 
L 126.426764 164.819182 
L 127.725382 257.69526 
L 129.024 306.385773 
L 130.322618 307.454388 
L 134.218473 307.556071 
L 136.815709 307.561766 
L 138.114327 195.780857 
L 139.412945 163.400506 
L 140.711564 162.275218 
L 141.091084 346.6 
M 142.930356 346.6 
L 143.3088 163.013299 
L 144.607418 164.227254 
L 145.906036 164.917881 
L 146.261585 346.6 
M 148.149535 346.6 
L 148.503273 166.189863 
L 149.232516 346.6 
M 150.372878 346.6 
L 151.100509 167.096872 
L 151.857131 346.6 
M 153.10334 346.6 
L 153.697745 238.065365 
L 154.996364 168.510667 
L 155.710461 346.6 
M 156.881422 346.6 
L 157.5936 169.570878 
L 160.190836 170.307331 
L 161.489455 170.859399 
L 161.809676 346.6 
M 163.766992 346.6 
L 164.086691 171.24037 
L 165.385309 171.92883 
L 166.683927 172.17829 
L 167.982545 172.732258 
L 168.314232 346.6 
M 170.249084 346.6 
L 170.579782 173.427496 
L 174.475636 174.532718 
L 174.790235 346.6 
M 176.759507 346.6 
L 177.072873 175.421288 
L 178.371491 260.843895 
L 179.670109 307.23611 
L 180.968727 307.535463 
L 183.565964 307.531125 
L 195.253527 307.6122 
L 196.552145 307.550649 
L 197.850764 307.632807 
L 203.045236 307.544412 
L 204.343855 233.979622 
L 204.760782 346.6 
M 206.386115 346.6 
L 206.941091 168.861269 
L 208.239709 170.723551 
L 209.538327 171.978451 
L 209.979581 346.6 
M 211.694368 346.6 
L 212.135564 172.013701 
L 213.434182 172.665012 
L 214.7328 173.642249 
L 216.031418 174.341284 
L 216.356354 346.6 
M 218.305588 346.6 
L 218.628655 175.660716 
L 219.927273 176.198686 
L 221.225891 176.968219 
L 222.524509 177.068276 
L 222.838211 346.6 
M 224.808414 346.6 
L 225.121745 177.33265 
L 226.420364 177.136334 
L 229.0176 178.147195 
L 229.371728 346.6 
M 231.262235 346.6 
L 231.614836 179.143685 
L 235.510691 180.468 
L 235.841503 346.6 
M 237.778239 346.6 
L 238.107927 181.224518 
L 240.705164 182.057502 
L 241.046673 346.6 
M 242.962397 346.6 
L 243.3024 183.040433 
L 244.601018 183.509801 
L 245.899636 224.700745 
L 247.198255 307.251837 
L 248.496873 307.65911 
L 249.795491 307.536006 
L 251.094109 307.590236 
L 252.392727 307.530311 
L 253.691345 307.655585 
L 257.5872 307.589423 
L 260.184436 307.547123 
L 261.483055 307.778146 
L 262.781673 307.794144 
L 265.378909 307.504823 
L 266.677527 307.665346 
L 269.274764 307.490181 
L 270.573382 307.601625 
L 273.170618 307.550649 
L 274.469236 252.20711 
L 274.758471 346.6 
M 276.626705 346.6 
L 277.066473 177.925121 
L 279.663709 179.374437 
L 280.089721 346.6 
M 281.837719 346.6 
L 282.260945 180.996749 
L 283.559564 181.532819 
L 284.858182 182.270899 
L 285.2449 346.6 
M 287.001588 346.6 
L 287.455418 138.432139 
L 288.754036 183.974829 
L 291.351273 184.926849 
L 291.730079 346.6 
M 293.572024 346.6 
L 293.948509 186.322206 
L 295.247127 186.405993 
L 296.545745 186.702634 
L 296.93702 346.6 
M 298.753073 346.6 
L 299.142982 187.500639 
L 301.740218 188.374839 
L 303.038836 188.863728 
L 303.412371 346.6 
M 305.263853 346.6 
L 305.636073 189.641939 
L 306.934691 189.812224 
L 308.233309 190.314129 
L 309.531927 190.685338 
L 309.854966 346.6 
M 311.807244 346.6 
L 312.129164 191.403895 
L 317.323636 192.826096 
L 317.615255 346.6 
M 319.631831 346.6 
L 319.920873 194.573681 
L 321.219491 194.335338 
L 322.518109 259.577337 
L 323.816727 307.115988 
L 325.115345 307.485842 
L 326.413964 307.450321 
L 329.0112 307.759979 
L 330.309818 308.123596 
L 331.608436 307.707376 
L 332.907055 307.509432 
L 334.205673 307.506721 
L 335.504291 307.631723 
L 336.802909 307.522448 
L 354.983564 307.641484 
L 356.282182 215.300664 
L 356.61662 346.6 
M 358.497576 346.6 
L 358.879418 188.938296 
L 360.178036 189.098006 
L 361.476655 189.455115 
L 362.775273 190.348837 
L 364.073891 191.053023 
L 364.357223 346.6 
M 366.389196 346.6 
L 366.671127 192.035141 
L 369.268364 193.357828 
L 370.566982 193.833703 
L 370.937528 346.6 
M 372.795421 346.6 
L 373.164218 194.840496 
L 374.462836 195.469844 
L 375.761455 195.722831 
L 377.060073 196.163184 
L 377.369537 346.6 
M 379.349059 346.6 
L 379.657309 196.937328 
L 382.254545 197.961745 
L 383.553164 198.302043 
L 383.919196 346.6 
M 385.786763 346.6 
L 386.1504 199.649948 
L 387.449018 199.468547 
L 390.046255 200.14182 
L 390.391725 346.6 
M 392.299602 346.6 
L 392.643491 201.053439 
L 393.942109 201.494877 
L 395.240727 201.715596 
L 396.539345 202.088161 
L 397.837964 202.208011 
L 398.141119 346.6 
M 400.133768 346.6 
L 400.4352 203.276899 
L 401.733818 203.675767 
L 404.331055 204.093342 
L 404.672199 346.6 
M 406.588395 346.6 
L 406.928291 204.799697 
L 408.226909 205.266624 
L 412.122764 206.159533 
L 412.418245 346.6 
M 414.426233 346.6 
L 414.72 207.212694 
L 414.72 207.212694 
" clip-path="url(#p4231663316)" style="fill: none; stroke: #1f77b4; stroke-width: 1.5; stroke-linecap: square"/>
   </g>
   <g id="line2d_13">
    <path d="M 57.6 115.263576 
L 58.358638 346.6 
M 59.444009 346.6 
L 60.197236 119.192276 
L 61.495855 119.112747 
L 61.968934 346.6 
M 63.622483 346.6 
L 64.093091 120.976615 
L 65.391709 121.273103 
L 65.970936 346.6 
M 67.414139 346.6 
L 67.988945 124.358298 
L 68.751436 346.6 
M 69.827362 346.6 
L 70.586182 126.932072 
L 71.160336 346.6 
M 72.611842 346.6 
L 73.183418 128.693881 
L 74.482036 130.300912 
L 75.143753 346.6 
M 76.420281 346.6 
L 77.079273 132.109132 
L 78.377891 133.216009 
L 78.887988 346.6 
M 80.468838 346.6 
L 80.975127 135.826956 
L 81.78824 346.6 
M 82.762872 346.6 
L 83.572364 138.318722 
L 84.870982 227.924304 
L 86.1696 291.317452 
L 87.468218 299.821224 
L 88.766836 303.307895 
L 90.065455 305.112961 
L 91.364073 306.045008 
L 92.662691 306.575804 
L 93.961309 306.975702 
L 95.259927 307.243805 
L 96.558545 307.350143 
L 97.857164 251.117107 
L 99.155782 142.340469 
L 99.624364 346.6 
M 101.285189 346.6 
L 101.753018 142.853241 
L 104.350255 144.887658 
L 104.655009 346.6 
M 106.644853 346.6 
L 106.947491 146.714353 
L 110.843345 149.625168 
L 111.161122 346.6 
M 113.125151 346.6 
L 113.440582 151.546036 
L 114.7392 151.792059 
L 117.336436 153.375659 
L 117.673024 346.6 
M 119.598101 346.6 
L 119.933673 154.162391 
L 121.232291 155.09286 
L 123.829527 156.565616 
L 124.126863 346.6 
M 126.129987 346.6 
L 126.426764 157.028598 
L 127.725382 255.400196 
L 129.024 306.111244 
L 130.322618 307.289764 
L 131.621236 307.407369 
L 136.815709 307.475182 
L 138.114327 192.228514 
L 139.412945 155.296302 
L 140.711564 155.090157 
L 141.016691 346.6 
M 143.00749 346.6 
L 143.3088 158.209596 
L 144.607418 157.568856 
L 145.906036 157.978442 
L 146.487238 346.6 
M 147.924842 346.6 
L 148.503273 159.599894 
L 149.037474 346.6 
M 150.568616 346.6 
L 151.100509 160.968563 
L 152.399127 163.06426 
L 153.003799 346.6 
M 154.390278 346.6 
L 154.996364 162.259505 
L 155.838807 346.6 
M 156.751557 346.6 
L 157.5936 162.508682 
L 158.892218 163.173753 
L 160.190836 164.1254 
L 161.489455 164.194116 
L 161.787246 346.6 
M 163.790548 346.6 
L 164.086691 165.502181 
L 165.385309 165.887435 
L 166.683927 165.806104 
L 167.982545 166.232362 
L 168.33172 346.6 
M 170.23131 346.6 
L 170.579782 166.728688 
L 171.8784 167.512941 
L 173.177018 167.738461 
L 174.475636 168.296743 
L 174.769645 346.6 
M 176.780465 346.6 
L 177.072873 169.549385 
L 178.371491 259.208588 
L 179.670109 307.473155 
L 180.968727 307.611036 
L 182.267345 307.433953 
L 183.565964 307.523621 
L 186.1632 307.514609 
L 187.461818 307.742608 
L 192.656291 307.541644 
L 203.045236 307.53759 
L 204.343855 230.168922 
L 204.817417 346.6 
M 206.322321 346.6 
L 206.941091 161.974281 
L 208.239709 164.362637 
L 209.538327 165.612799 
L 209.940903 346.6 
M 211.733501 346.6 
L 212.135564 165.946913 
L 213.434182 166.469598 
L 214.7328 167.803797 
L 216.031418 168.396549 
L 216.372049 346.6 
M 218.289679 346.6 
L 218.628655 169.568535 
L 221.225891 171.144702 
L 222.524509 171.432854 
L 222.817644 346.6 
M 224.829432 346.6 
L 225.121745 172.06661 
L 226.420364 171.519142 
L 227.718982 171.756379 
L 229.0176 172.527564 
L 229.395691 346.6 
M 231.237913 346.6 
L 231.614836 173.285233 
L 232.913455 173.997391 
L 235.510691 175.168702 
L 235.819112 346.6 
M 237.800754 346.6 
L 238.107927 176.077543 
L 240.705164 176.771452 
L 241.095717 346.6 
M 242.916289 346.6 
L 243.3024 179.52028 
L 244.601018 177.778297 
L 245.899636 219.302478 
L 247.198255 306.997781 
L 248.496873 307.35465 
L 249.795491 307.298325 
L 251.094109 307.45806 
L 253.691345 307.48104 
L 256.288582 307.470677 
L 266.677527 307.544123 
L 273.170618 307.503795 
L 274.469236 249.375348 
L 274.726438 346.6 
M 276.669532 346.6 
L 277.066473 173.298299 
L 278.365091 173.026593 
L 279.663709 173.643001 
L 280.122593 346.6 
M 281.803754 346.6 
L 282.260945 174.627542 
L 283.559564 175.853374 
L 284.858182 176.67052 
L 286.1568 179.536953 
L 286.504766 346.6 
M 288.404421 346.6 
L 288.754036 178.453508 
L 290.052655 179.209373 
L 291.351273 179.520055 
L 291.759833 346.6 
M 293.541305 346.6 
L 293.948509 180.328189 
L 296.545745 181.568666 
L 296.90361 346.6 
M 298.788044 346.6 
L 299.142982 183.426451 
L 300.4416 183.215574 
L 301.740218 183.437491 
L 303.117419 346.6 
M 304.978924 346.6 
L 305.636073 184.128471 
L 306.934691 184.792191 
L 309.531927 185.767269 
L 309.830011 346.6 
M 311.832499 346.6 
L 312.129164 186.75947 
L 313.427782 187.557917 
L 314.7264 187.40449 
L 316.025018 187.839535 
L 317.323636 189.640096 
L 317.632394 346.6 
M 319.610728 346.6 
L 319.920873 188.713681 
L 321.219491 189.276469 
L 322.518109 256.847043 
L 323.816727 307.258899 
L 327.712582 307.443416 
L 330.309818 307.469099 
L 331.608436 307.655194 
L 332.907055 307.457384 
L 341.997382 307.530155 
L 343.296 307.496135 
L 344.594618 307.706561 
L 345.893236 307.511004 
L 349.789091 307.652265 
L 351.087709 307.502218 
L 354.983564 307.565075 
L 356.282182 210.80569 
L 356.583346 346.6 
M 358.536194 346.6 
L 358.879418 185.02785 
L 360.178036 183.635074 
L 361.476655 183.780615 
L 362.775273 184.947194 
L 364.073891 185.673321 
L 364.372557 346.6 
M 366.373805 346.6 
L 366.671127 186.612803 
L 367.969745 187.592161 
L 369.268364 188.279988 
L 370.566982 188.701966 
L 370.907902 346.6 
M 372.826023 346.6 
L 373.164218 190.408578 
L 374.462836 190.773331 
L 375.761455 191.003133 
L 377.060073 191.606248 
L 377.386151 346.6 
M 379.33176 346.6 
L 379.657309 191.941937 
L 380.955927 192.887503 
L 382.254545 193.436548 
L 383.553164 194.133611 
L 383.891872 346.6 
M 385.812329 346.6 
L 386.1504 194.521569 
L 387.449018 195.076247 
L 388.747636 195.382423 
L 390.046255 195.85667 
L 390.408002 346.6 
M 392.282358 346.6 
L 392.643491 196.211736 
L 393.942109 196.983596 
L 395.240727 197.340014 
L 397.837964 198.416025 
L 398.122712 346.6 
M 400.151608 346.6 
L 400.4352 199.185633 
L 401.733818 199.375783 
L 404.331055 200.135703 
L 404.688537 346.6 
M 406.571625 346.6 
L 406.928291 200.596659 
L 409.525527 201.545151 
L 410.824145 201.91779 
L 412.122764 202.064682 
L 412.401197 346.6 
M 414.443704 346.6 
L 414.72 203.474355 
L 414.72 203.474355 
" clip-path="url(#p4231663316)" style="fill: none; stroke: #ff7f0e; stroke-width: 1.5; stroke-linecap: square"/>
   </g>
   <g id="line2d_14">
    <path d="M 57.6 136.077478 
L 58.898618 137.515899 
L 59.523009 346.6 
M 60.874241 346.6 
L 61.495855 139.299505 
L 62.27009 346.6 
M 63.322509 346.6 
L 64.093091 141.705085 
L 64.984078 346.6 
M 65.801014 346.6 
L 66.690327 142.926423 
L 67.988945 144.182252 
L 68.433831 346.6 
M 70.144311 346.6 
L 70.586182 146.261195 
L 71.8848 334.714011 
L 73.183418 147.908872 
L 74.482036 149.217159 
L 74.88524 346.6 
M 76.678893 346.6 
L 77.079273 151.216109 
L 78.29602 346.6 
M 78.460574 346.6 
L 79.676509 153.26259 
L 80.975127 154.727966 
L 81.40578 346.6 
M 83.145533 346.6 
L 83.572364 157.264548 
L 84.870982 236.698815 
L 86.1696 292.395807 
L 87.468218 300.375957 
L 88.766836 303.659717 
L 90.065455 305.207693 
L 91.364073 306.178911 
L 92.662691 306.659446 
L 95.259927 307.321705 
L 96.558545 307.318807 
L 97.857164 256.163142 
L 99.155782 159.780263 
L 99.56511 346.6 
M 101.344769 346.6 
L 101.753018 160.498458 
L 104.350255 162.655655 
L 104.764331 346.6 
M 106.536327 346.6 
L 106.947491 164.549107 
L 108.246109 307.584 
L 109.544727 165.936807 
L 110.843345 166.736735 
L 111.254899 346.6 
M 113.033171 346.6 
L 113.440582 169.375047 
L 114.7392 168.767855 
L 116.037818 169.362005 
L 117.336436 169.74197 
L 117.589741 346.6 
M 119.682113 346.6 
L 119.933673 171.252848 
L 121.232291 171.784394 
L 122.530909 172.031039 
L 123.829527 172.870094 
L 124.289419 346.6 
M 125.96845 346.6 
L 126.426764 173.791169 
L 127.725382 259.065489 
L 129.024 306.404106 
L 130.322618 307.401697 
L 131.621236 307.545742 
L 132.919855 307.434158 
L 134.218473 307.588638 
L 136.815709 307.524585 
L 138.114327 204.504334 
L 139.412945 171.901486 
L 140.711564 171.97858 
L 140.976001 346.6 
M 143.046817 346.6 
L 143.3088 174.008541 
L 144.607418 173.747116 
L 145.906036 269.284274 
L 146.305159 346.6 
M 147.859554 346.6 
L 148.503273 175.329581 
L 149.270994 346.6 
M 150.334411 346.6 
L 151.100509 176.212689 
L 152.181409 346.6 
M 152.61566 346.6 
L 153.697745 175.092211 
L 154.996364 177.632851 
L 155.433251 346.6 
M 157.158595 346.6 
L 157.5936 178.727534 
L 158.892218 178.818831 
L 160.190836 179.22633 
L 161.489455 179.457903 
L 161.947685 346.6 
M 163.629575 346.6 
L 164.086691 180.085092 
L 165.385309 180.529111 
L 166.683927 181.447288 
L 167.982545 181.385556 
L 168.242849 346.6 
M 170.320539 346.6 
L 170.579782 182.226638 
L 171.8784 182.177657 
L 174.475636 182.859915 
L 174.923457 346.6 
M 176.626196 346.6 
L 177.072873 183.497248 
L 178.371491 263.932585 
L 179.670109 307.297359 
L 180.968727 307.524585 
L 187.461818 307.587188 
L 188.760436 307.512123 
L 191.357673 307.544294 
L 195.253527 307.559365 
L 200.448 307.641966 
L 203.045236 307.599941 
L 204.343855 238.524157 
L 204.611217 346.6 
M 206.568227 346.6 
L 206.941091 178.700291 
L 208.239709 180.05698 
L 209.538327 181.194558 
L 210.294384 346.6 
M 211.379363 346.6 
L 212.135564 181.118913 
L 216.031418 183.270602 
L 216.287002 346.6 
M 218.374802 346.6 
L 218.628655 184.64526 
L 219.927273 184.940307 
L 221.225891 185.480257 
L 222.524509 185.759652 
L 222.970052 346.6 
M 224.676645 346.6 
L 225.121745 186.003109 
L 226.420364 185.88341 
L 227.718982 186.35699 
L 229.0176 186.652325 
L 229.286977 346.6 
M 231.347848 346.6 
L 231.614836 188.437671 
L 232.913455 187.936557 
L 235.510691 188.858792 
L 236.009406 346.6 
M 237.610941 346.6 
L 238.107927 189.74451 
L 239.406545 190.377495 
L 240.705164 190.418652 
L 242.003782 192.719893 
L 242.327836 346.6 
M 244.274563 346.6 
L 244.601018 191.196842 
L 245.899636 228.294356 
L 247.198255 307.130129 
L 248.496873 307.43242 
L 253.691345 307.522267 
L 257.5872 307.58487 
L 262.781673 307.553858 
L 264.080291 307.664863 
L 265.378909 307.49821 
L 266.677527 307.622257 
L 269.274764 307.538206 
L 270.573382 307.623128 
L 273.170618 307.519368 
L 274.469236 255.582325 
L 275.058022 346.6 
M 276.296927 346.6 
L 277.066473 186.996063 
L 278.365091 187.509928 
L 279.663709 188.593599 
L 279.967493 346.6 
M 281.957763 346.6 
L 282.260945 189.001677 
L 283.559564 189.907974 
L 284.858182 190.4543 
L 285.470551 346.6 
M 286.842131 346.6 
L 287.455418 190.011152 
L 288.754036 191.819105 
L 290.052655 192.292105 
L 291.351273 192.643958 
L 291.630562 346.6 
M 293.671356 346.6 
L 293.948509 194.141214 
L 295.247127 193.960361 
L 296.545745 194.438288 
L 297.195941 346.6 
M 298.493889 346.6 
L 299.142982 194.954184 
L 300.4416 195.449211 
L 303.038836 196.000756 
L 303.317026 346.6 
M 305.359093 346.6 
L 305.636073 196.832855 
L 306.934691 197.043849 
L 308.233309 197.499751 
L 309.531927 197.697704 
L 310.013772 346.6 
M 311.648465 346.6 
L 312.129164 198.260261 
L 314.7264 199.158441 
L 316.025018 200.171682 
L 317.323636 199.610574 
L 317.551669 346.6 
M 319.694167 346.6 
L 319.920873 200.646422 
L 321.219491 200.691636 
L 322.518109 262.505757 
L 323.816727 307.304605 
L 325.115345 307.581971 
L 326.413964 307.526614 
L 329.0112 307.612693 
L 334.205673 307.586319 
L 335.504291 307.677325 
L 338.101527 307.558784 
L 341.997382 307.617911 
L 345.893236 307.620229 
L 348.490473 307.607766 
L 349.789091 307.525455 
L 352.386327 307.557046 
L 354.983564 307.626026 
L 356.282182 222.052892 
L 356.854484 346.6 
M 358.24501 346.6 
L 358.879418 195.627745 
L 360.178036 196.194651 
L 361.476655 196.41782 
L 362.775273 197.300927 
L 364.073891 197.986953 
L 364.297958 346.6 
M 366.447542 346.6 
L 366.671127 198.373295 
L 367.969745 199.433198 
L 369.268364 200.011987 
L 369.947468 346.6 
M 371.192069 346.6 
L 371.8656 202.511471 
L 373.164218 201.159709 
L 375.761455 202.104262 
L 377.060073 202.42742 
L 377.286537 346.6 
M 379.431266 346.6 
L 379.657309 202.752029 
L 380.955927 203.521525 
L 383.553164 204.286673 
L 384.157987 346.6 
M 385.546647 346.6 
L 386.1504 204.757355 
L 387.449018 205.174709 
L 390.046255 205.639885 
L 390.302334 346.6 
M 392.388535 346.6 
L 392.643491 206.409089 
L 393.942109 206.720656 
L 395.240727 207.312486 
L 396.539345 207.305821 
L 397.358066 346.6 
M 399.179339 346.6 
L 400.4352 208.081402 
L 401.733818 208.534985 
L 403.032436 208.844812 
L 404.331055 209.011173 
L 404.585855 346.6 
M 406.674565 346.6 
L 406.928291 209.732268 
L 410.824145 210.448724 
L 412.122764 211.937286 
L 412.683034 346.6 
M 414.158389 346.6 
L 414.72 211.369222 
L 414.72 211.369222 
" clip-path="url(#p4231663316)" style="fill: none; stroke: #2ca02c; stroke-width: 1.5; stroke-linecap: square"/>
   </g>
   <g id="patch_3">
    <path d="M 57.6 307.584 
L 57.6 41.472 
" style="fill: none; stroke: #000000; stroke-width: 0.8; stroke-linejoin: miter; stroke-linecap: square"/>
   </g>
   <g id="patch_4">
    <path d="M 414.72 307.584 
L 414.72 41.472 
" style="fill: none; stroke: #000000; stroke-width: 0.8; stroke-linejoin: miter; stroke-linecap: square"/>
   </g>
   <g id="patch_5">
    <path d="M 57.6 307.584 
L 414.72 307.584 
" style="fill: none; stroke: #000000; stroke-width: 0.8; stroke-linejoin: miter; stroke-linecap: square"/>
   </g>
   <g id="patch_6">
    <path d="M 57.6 41.472 
L 414.72 41.472 
" style="fill: none; stroke: #000000; stroke-width: 0.8; stroke-linejoin: miter; stroke-linecap: square"/>
   </g>
   <g id="legend_1">
    <g id="patch_7">
     <path d="M 345.393438 302.584 
L 407.72 302.584 
Q 409.72 302.584 409.72 300.584 
L 409.72 257.549625 
Q 409.72 255.549625 407.72 255.549625 
L 345.393438 255.549625 
Q 343.393438 255.549625 343.393438 257.549625 
L 343.393438 300.584 
Q 343.393438 302.584 345.393438 302.584 
z
" style="fill: #ffffff; opacity: 0.8; stroke: #cccccc; stroke-linejoin: miter"/>
    </g>
    <g id="line2d_15">
     <path d="M 347.393438 263.648062 
L 357.393438 263.648062 
L 367.393438 263.648062 
" style="fill: none; stroke: #1f77b4; stroke-width: 1.5; stroke-linecap: square"/>
    </g>
    <g id="text_14">
     <!-- Flux 0 -->
     <g transform="translate(375.393438 267.148062) scale(0.1 -0.1)">
      <use xlink:href="#DejaVuSans-46"/>
      <use xlink:href="#DejaVuSans-6c" x="57.519531"/>
      <use xlink:href="#DejaVuSans-75" x="85.302734"/>
      <use xlink:href="#DejaVuSans-78" x="148.681641"/>
      <use xlink:href="#DejaVuSans-20" x="207.861328"/>
      <use xlink:href="#DejaVuSans-30" x="239.648438"/>
     </g>
    </g>
    <g id="line2d_16">
     <path d="M 347.393438 278.326188 
L 357.393438 278.326188 
L 367.393438 278.326188 
" style="fill: none; stroke: #ff7f0e; stroke-width: 1.5; stroke-linecap: square"/>
    </g>
    <g id="text_15">
     <!-- Flux 1 -->
     <g transform="translate(375.393438 281.826188) scale(0.1 -0.1)">
      <use xlink:href="#DejaVuSans-46"/>
      <use xlink:href="#DejaVuSans-6c" x="57.519531"/>
      <use xlink:href="#DejaVuSans-75" x="85.302734"/>
      <use xlink:href="#DejaVuSans-78" x="148.681641"/>
      <use xlink:href="#DejaVuSans-20" x="207.861328"/>
      <use xlink:href="#DejaVuSans-31" x="239.648438"/>
     </g>
    </g>
    <g id="line2d_17">
     <path d="M 347.393438 293.004312 
L 357.393438 293.004312 
L 367.393438 293.004312 
" style="fill: none; stroke: #2ca02c; stroke-width: 1.5; stroke-linecap: square"/>
    </g>
    <g id="text_16">
     <!-- Flux 2 -->
     <g transform="translate(375.393438 296.504312) scale(0.1 -0.1)">
      <use xlink:href="#DejaVuSans-46"/>
      <use xlink:href="#DejaVuSans-6c" x="57.519531"/>
      <use xlink:href="#DejaVuSans-75" x="85.302734"/>
      <use xlink:href="#DejaVuSans-78" x="148.681641"/>
      <use xlink:href="#DejaVuSans-20" x="207.861328"/>
      <use xlink:href="#DejaVuSans-32" x="239.648438"/>
     </g>
    </g>
   </g>
  </g>
 </g>
 <defs>
  <clipPath id="p4231663316">
   <rect x="57.6" y="41.472" width="357.12" height="266.112"/>
  </clipPath>
 </defs>
</svg>
